<svg width="20" height="20" viewBox="0 0 20 20" fill="none" xmlns="http://www.w3.org/2000/svg">
<path fill-rule="evenodd" clip-rule="evenodd" d="M2 10C2 9.5582 2.35817 9.20003 2.8 9.20003H7.3C7.74183 9.20003 8.1 9.5582 8.1 10C8.1 10.4419 7.74183 10.8 7.3 10.8H2.8C2.35817 10.8 2 10.4419 2 10Z" fill="#9CA3B0"/>
<path fill-rule="evenodd" clip-rule="evenodd" d="M11.9 10C11.9 9.5582 12.2582 9.20003 12.7 9.20003H17.2C17.6418 9.20003 18 9.5582 18 10C18 10.4419 17.6418 10.8 17.2 10.8H12.7C12.2582 10.8 11.9 10.4419 11.9 10Z" fill="#9CA3B0"/>
<path fill-rule="evenodd" clip-rule="evenodd" d="M8.62132 10L10.0355 11.4142L11.4497 10L10.0355 8.5858L8.62132 10ZM7.20711 9.29291C6.81658 9.68343 6.81658 10.3166 7.20711 10.7071L9.32843 12.8284C9.71895 13.219 10.3521 13.219 10.7426 12.8284L12.864 10.7071C13.2545 10.3166 13.2545 9.68343 12.864 9.29291L10.7426 7.17159C10.3521 6.78106 9.71895 6.78106 9.32843 7.17159L7.20711 9.29291Z" fill="#9CA3B0"/>
</svg>
