<svg width="20" height="20" viewBox="0 0 20 20" fill="none" xmlns="http://www.w3.org/2000/svg">
<path fill-rule="evenodd" clip-rule="evenodd" d="M3.6 5.1V14.9H13L15 13L16.4 11.5V5.1H3.6ZM3 3.5C2.44772 3.5 2 3.94772 2 4.5V15.5C2 16.0523 2.44772 16.5 3 16.5H13L18 11.5V4.5C18 3.94772 17.5523 3.5 17 3.5H3Z" fill="#9CA3B0"/>
<path d="M17.8 11H12.7C12.5895 11 12.5 11.0895 12.5 11.2V16.3C12.5 16.4105 12.5895 16.5 12.7 16.5H12.9172C12.9702 16.5 13.0211 16.4789 13.0586 16.4414L17.9414 11.5586C17.9789 11.5211 18 11.4702 18 11.4172V11.2C18 11.0895 17.9105 11 17.8 11Z" fill="#9CA3B0"/>
</svg>
