<svg width="20" height="20" viewBox="0 0 20 20" fill="none" xmlns="http://www.w3.org/2000/svg">
<path d="M8.78031 3.84289C6.61096 4.87994 5.5263 6.10526 5.5263 7.51881C6.40499 7.59779 7.22354 7.99274 7.82618 8.62851C8.40811 9.22049 8.73251 10.0134 8.7301 10.838C8.74085 11.2519 8.66824 11.6638 8.51654 12.0499C8.36483 12.436 8.13704 12.7885 7.84629 13.0872C7.56414 13.3844 7.22133 13.6193 6.84049 13.7764C6.45966 13.9336 6.04942 14.0093 5.63676 13.9987C5.14738 13.9993 4.66392 13.8931 4.22112 13.6875C3.77832 13.4819 3.38717 13.1821 3.07575 12.8097C2.36055 12.0174 1.97651 10.9871 2.00111 9.92647C2.00111 6.5313 3.91935 3.88914 7.75587 2L8.78031 3.84289ZM18 3.84289C15.8507 4.87994 14.7761 6.10526 14.7761 7.51881C15.6449 7.60214 16.4525 7.99698 17.0459 8.62851C17.6177 9.23378 17.9357 10.0304 17.9357 10.8578C17.9357 11.6852 17.6177 12.4819 17.0459 13.0872C16.7669 13.3857 16.4261 13.6216 16.0466 13.7789C15.6672 13.9361 15.2578 14.0111 14.8464 13.9987C14.356 13.9967 13.872 13.8893 13.4279 13.684C12.9839 13.4786 12.5906 13.1803 12.2753 12.8097C11.5539 12.0205 11.1658 10.9889 11.1907 9.92647C11.1907 6.5313 13.1157 3.88914 16.9656 2L18 3.84289Z" fill="#9CA3B0"/>
<path fill-rule="evenodd" clip-rule="evenodd" d="M18 18H2V16.4H18V18Z" fill="#9CA3B0"/>
</svg>
