<svg width="20" height="20" viewBox="0 0 20 20" fill="none" xmlns="http://www.w3.org/2000/svg">
<path d="M8.78031 5.84289C6.61096 6.87994 5.5263 8.10526 5.5263 9.51881C6.40499 9.59779 7.22354 9.99274 7.82618 10.6285C8.40811 11.2205 8.73251 12.0134 8.7301 12.838C8.74085 13.2519 8.66824 13.6638 8.51654 14.0499C8.36483 14.436 8.13704 14.7885 7.84629 15.0872C7.56414 15.3844 7.22133 15.6193 6.84049 15.7764C6.45966 15.9336 6.04942 16.0093 5.63676 15.9987C5.14738 15.9993 4.66392 15.8931 4.22112 15.6875C3.77832 15.4819 3.38717 15.1821 3.07575 14.8097C2.36055 14.0174 1.97651 12.9871 2.00111 11.9265C2.00111 8.5313 3.91935 5.88914 7.75587 4L8.78031 5.84289ZM18 5.84289C15.8507 6.87994 14.7761 8.10526 14.7761 9.51881C15.6449 9.60214 16.4525 9.99698 17.0459 10.6285C17.6177 11.2338 17.9357 12.0304 17.9357 12.8578C17.9357 13.6852 17.6177 14.4819 17.0459 15.0872C16.7669 15.3857 16.4261 15.6216 16.0466 15.7789C15.6672 15.9361 15.2578 16.0111 14.8464 15.9987C14.356 15.9967 13.872 15.8893 13.4279 15.684C12.9839 15.4786 12.5906 15.1803 12.2753 14.8097C11.5539 14.0205 11.1658 12.9889 11.1907 11.9265C11.1907 8.5313 13.1157 5.88914 16.9656 4L18 5.84289Z" fill="#9CA3B0"/>
</svg>
