<svg width="20" height="20" viewBox="0 0 20 20" fill="none" xmlns="http://www.w3.org/2000/svg">
<path fill-rule="evenodd" clip-rule="evenodd" d="M2 16.5L2 3.5L3.6 3.5L3.6 16.5H2Z" fill="#9CA3B0"/>
<path fill-rule="evenodd" clip-rule="evenodd" d="M5 6.2C5 5.75817 5.35817 5.4 5.8 5.4H17.2C17.6418 5.4 18 5.75817 18 6.2C18 6.64183 17.6418 7 17.2 7H5.8C5.35817 7 5 6.64183 5 6.2Z" fill="#9CA3B0"/>
<path fill-rule="evenodd" clip-rule="evenodd" d="M5 9.8C5 9.35817 5.35817 9 5.8 9H17.2C17.6418 9 18 9.35817 18 9.8C18 10.2418 17.6418 10.6 17.2 10.6H5.8C5.35817 10.6 5 10.2418 5 9.8Z" fill="#9CA3B0"/>
<path fill-rule="evenodd" clip-rule="evenodd" d="M5 13.3C5 12.8582 5.35817 12.5 5.8 12.5H12.2C12.6418 12.5 13 12.8582 13 13.3C13 13.7418 12.6418 14.1 12.2 14.1H5.8C5.35817 14.1 5 13.7418 5 13.3Z" fill="#9CA3B0"/>
</svg>
