<svg width="20" height="20" viewBox="0 0 20 20" fill="none" xmlns="http://www.w3.org/2000/svg">
<path fill-rule="evenodd" clip-rule="evenodd" d="M2.00001 3.28948C2.00001 2.85346 2.36044 2.50001 2.80504 2.50001H17.195C17.6396 2.50001 18 2.85346 18 3.28948L18 13.6741C18 14.1101 17.6396 14.4635 17.195 14.4635H12.5467L10.2726 17.2083C9.99223 17.5467 9.48521 17.5982 9.14015 17.3232C8.79508 17.0483 8.74263 16.5511 9.023 16.2127L11.5387 13.1762C11.6916 12.9917 11.9211 12.8846 12.1635 12.8846H16.3899L16.3899 4.07895H3.61008L3.61006 12.8846H8.64151C9.08611 12.8846 9.44654 13.2381 9.44654 13.6741C9.44654 14.1101 9.08611 14.4635 8.64151 14.4635H2.80503C2.36042 14.4635 2 14.1101 2 13.6741L2.00001 3.28948Z" fill="#9CA3B0"/>
</svg>
