<svg width="20" height="20" viewBox="0 0 20 20" fill="none" xmlns="http://www.w3.org/2000/svg">
<path fill-rule="evenodd" clip-rule="evenodd" d="M2 4.28689C2 3.8523 2.3523 3.5 2.78689 3.5H7.21311C7.6477 3.5 8 3.8523 8 4.28689C8 4.72147 7.6477 5.07377 7.21311 5.07377H3.57377V8.71311C3.57377 9.1477 3.22147 9.5 2.78689 9.5C2.3523 9.5 2 9.1477 2 8.71311V4.28689Z" fill="#9CA3B0"/>
<path fill-rule="evenodd" clip-rule="evenodd" d="M18 15.7131C18 16.1477 17.6477 16.5 17.2131 16.5H12.7869C12.3523 16.5 12 16.1477 12 15.7131C12 15.2785 12.3523 14.9262 12.7869 14.9262L16.4262 14.9262V11.2869C16.4262 10.8523 16.7785 10.5 17.2131 10.5C17.6477 10.5 18 10.8523 18 11.2869V15.7131Z" fill="#9CA3B0"/>
</svg>
